<svg width="20" height="19" viewBox="0 0 20 19" fill="none" xmlns="http://www.w3.org/2000/svg">
    <path d="M18 2.89844H14.83L13.59 1.54844C13.22 1.13844 12.68 0.898438 12.12 0.898438H7.88C7.32 0.898438 6.78 1.13844 6.4 1.54844L5.17 2.89844H2C0.9 2.89844 0 3.79844 0 4.89844V16.8984C0 17.9984 0.9 18.8984 2 18.8984H18C19.1 18.8984 20 17.9984 20 16.8984V4.89844C20 3.79844 19.1 2.89844 18 2.89844ZM10 15.8984C7.24 15.8984 5 13.6584 5 10.8984C5 8.13844 7.24 5.89844 10 5.89844C12.76 5.89844 15 8.13844 15 10.8984C15 13.6584 12.76 15.8984 10 15.8984Z" fill="#323232" />
</svg>