<svg width="22" height="24" viewBox="0 0 22 24" fill="none" xmlns="http://www.w3.org/2000/svg">
<path d="M8.38792 10.0664C7.70392 10.0664 7.16392 10.6664 7.16392 11.3984C7.16392 12.1304 7.71592 12.7304 8.38792 12.7304C9.07192 12.7304 9.61192 12.1304 9.61192 11.3984C9.62392 10.6664 9.07192 10.0664 8.38792 10.0664ZM12.7679 10.0664C12.0839 10.0664 11.5439 10.6664 11.5439 11.3984C11.5439 12.1304 12.0959 12.7304 12.7679 12.7304C13.4519 12.7304 13.9919 12.1304 13.9919 11.3984C13.9919 10.6664 13.4519 10.0664 12.7679 10.0664Z" fill="#CECECE"/>
<path d="M18.5999 0H2.51994C1.16394 0 0.0599365 1.104 0.0599365 2.472V18.696C0.0599365 20.064 1.16394 21.168 2.51994 21.168H16.1279L15.4919 18.948L17.0279 20.376L18.4799 21.72L21.0599 24V2.472C21.0599 1.104 19.9559 0 18.5999 0ZM13.9679 15.672C13.9679 15.672 13.5359 15.156 13.1759 14.7C14.7479 14.256 15.3479 13.272 15.3479 13.272C14.8559 13.596 14.3879 13.824 13.9679 13.98C13.3679 14.232 12.7919 14.4 12.2279 14.496C11.0759 14.712 10.0199 14.652 9.11994 14.484C8.43594 14.352 7.84794 14.16 7.35594 13.968C7.07994 13.86 6.77994 13.728 6.47994 13.56C6.44394 13.536 6.40794 13.524 6.37194 13.5C6.34794 13.488 6.33594 13.476 6.32394 13.464C6.10794 13.344 5.98794 13.26 5.98794 13.26C5.98794 13.26 6.56394 14.22 8.08794 14.676C7.72794 15.132 7.28394 15.672 7.28394 15.672C4.63194 15.588 3.62394 13.848 3.62394 13.848C3.62394 9.984 5.35194 6.852 5.35194 6.852C7.07994 5.556 8.72394 5.592 8.72394 5.592L8.84394 5.736C6.68394 6.36 5.68794 7.308 5.68794 7.308C5.68794 7.308 5.95194 7.164 6.39594 6.96C7.67994 6.396 8.69994 6.24 9.11994 6.204C9.19194 6.192 9.25194 6.18 9.32394 6.18C10.0559 6.084 10.8839 6.06 11.7479 6.156C12.8879 6.288 14.1119 6.624 15.3599 7.308C15.3599 7.308 14.4119 6.408 12.3719 5.784L12.5399 5.592C12.5399 5.592 14.1839 5.556 15.9119 6.852C15.9119 6.852 17.6399 9.984 17.6399 13.848C17.6399 13.848 16.6199 15.588 13.9679 15.672Z" fill="#CECECE"/>
</svg>
