<svg width="25" height="20" viewBox="0 0 25 20" fill="none" xmlns="http://www.w3.org/2000/svg">
<path d="M8.05016 19.7507C17.1045 19.7507 22.0583 12.2474 22.0583 5.74259C22.0583 5.53166 22.0536 5.31603 22.0442 5.10509C23.0079 4.40819 23.8395 3.54499 24.5 2.55603C23.6025 2.95533 22.6496 3.21611 21.6739 3.32947C22.7013 2.71364 23.4705 1.7462 23.8391 0.606499C22.8726 1.17929 21.8156 1.58334 20.7134 1.80134C19.9708 1.01229 18.989 0.489849 17.9197 0.314783C16.8504 0.139718 15.7532 0.321783 14.7977 0.832829C13.8423 1.34387 13.0818 2.15544 12.6338 3.14204C12.1859 4.12865 12.0754 5.23535 12.3195 6.29103C10.3625 6.19282 8.44794 5.68444 6.69998 4.79883C4.95203 3.91323 3.40969 2.67017 2.17297 1.15025C1.5444 2.23398 1.35206 3.51638 1.63503 4.73682C1.918 5.95727 2.65506 7.02418 3.69641 7.72072C2.91463 7.6959 2.14998 7.48541 1.46563 7.10666V7.16759C1.46492 8.30488 1.8581 9.40732 2.57831 10.2875C3.29852 11.1677 4.30132 11.7713 5.41625 11.9957C4.69206 12.1939 3.93198 12.2227 3.19484 12.0801C3.50945 13.0582 4.12157 13.9136 4.94577 14.5271C5.76997 15.1405 6.76512 15.4813 7.79234 15.502C6.04842 16.8718 3.89417 17.6149 1.67656 17.6113C1.28329 17.6107 0.890399 17.5866 0.5 17.5392C2.75286 18.9845 5.37353 19.7521 8.05016 19.7507Z" fill="#CECECE"/>
</svg>
